M48
; DRILL file {KiCad 7.0.8} date Sat Dec 16 16:40:33 2023
; FORMAT={-:-/ absolute / inch / decimal}
; #@! TF.CreationDate,2023-12-16T16:40:33-03:00
; #@! TF.GenerationSoftware,Kicad,Pcbnew,7.0.8
; #@! TF.FileFunction,Plated,1,2,PTH
FMAT,2
INCH
; #@! TA.AperFunction,Plated,PTH,ComponentDrill
T1C0.0276
; #@! TA.AperFunction,Plated,PTH,ComponentDrill
T2C0.0300
; #@! TA.AperFunction,Plated,PTH,ComponentDrill
T3C0.0315
; #@! TA.AperFunction,Plated,PTH,ComponentDrill
T4C0.0354
; #@! TA.AperFunction,Plated,PTH,ComponentDrill
T5C0.0512
%
G90
G05
T1
X6.6484Y-2.35
X6.6484Y-2.65
X6.6484Y-2.95
X6.6484Y-3.25
X6.7Y-2.8
X6.7984Y-2.8
X6.8484Y-2.35
X6.8484Y-2.65
X6.8484Y-2.95
X6.8484Y-3.25
X7.75Y-3.2
X7.75Y-3.5
X8.0016Y-2.4
X8.0016Y-2.7
X8.0016Y-3.0
X8.0016Y-3.3
X8.0516Y-2.85
X8.15Y-2.85
X8.2016Y-2.4
X8.2016Y-2.7
X8.2016Y-3.0
X8.2016Y-3.3
T2
X6.65Y-3.45
X6.65Y-3.65
T3
X7.0Y-3.45
X7.0984Y-3.45
X7.3004Y-2.4504
X7.3004Y-2.5504
X7.3004Y-2.6504
X7.3004Y-2.7504
X7.3004Y-2.9504
X7.3004Y-3.0504
X7.3004Y-3.1504
X7.3004Y-3.2504
X7.3024Y-3.5
X7.5976Y-3.5
X7.6004Y-2.4504
X7.6004Y-2.5504
X7.6004Y-2.6504
X7.6004Y-2.7504
X7.6004Y-2.9504
X7.6004Y-3.0504
X7.6004Y-3.1504
X7.6004Y-3.2504
T4
X8.05Y-3.5
X8.05Y-3.6
T5
X6.5666Y-1.9138
X6.5863Y-2.2012
X6.7477Y-1.7602
X6.8462Y-2.028
X6.9525Y-2.0752
X7.2531Y-1.9331
X7.2531Y-2.2283
X7.45Y-1.9331
X7.45Y-2.2283
X7.6469Y-1.9331
X7.6469Y-2.2283
X7.9189Y-1.9138
X7.9386Y-2.2012
X8.1Y-1.7602
X8.1984Y-2.028
X8.3047Y-2.0752
T0
M30
