%TF.GenerationSoftware,KiCad,Pcbnew,7.0.8*%
%TF.CreationDate,2023-12-16T16:40:22-03:00*%
%TF.ProjectId,cmoy,636d6f79-2e6b-4696-9361-645f70636258,rev?*%
%TF.SameCoordinates,Original*%
%TF.FileFunction,Soldermask,Top*%
%TF.FilePolarity,Negative*%
%FSLAX46Y46*%
G04 Gerber Fmt 4.6, Leading zero omitted, Abs format (unit mm)*
G04 Created by KiCad (PCBNEW 7.0.8) date 2023-12-16 16:40:22*
%MOMM*%
%LPD*%
G01*
G04 APERTURE LIST*
%ADD10O,1.600000X1.600000*%
%ADD11R,1.600000X1.600000*%
%ADD12C,2.340000*%
%ADD13O,1.400000X1.400000*%
%ADD14C,1.400000*%
%ADD15O,2.200000X4.000000*%
%ADD16O,4.000000X2.200000*%
%ADD17R,2.200000X4.000000*%
%ADD18R,1.800000X1.800000*%
%ADD19C,1.800000*%
%ADD20C,1.600000*%
%ADD21C,1.524000*%
G04 APERTURE END LIST*
D10*
%TO.C,U2*%
X193050000Y-62240000D03*
X193050000Y-64780000D03*
X193050000Y-67320000D03*
X193050000Y-69860000D03*
X185430000Y-69860000D03*
X185430000Y-67320000D03*
X185430000Y-64780000D03*
D11*
X185430000Y-62240000D03*
%TD*%
%TO.C,U1*%
X185430000Y-74940000D03*
D10*
X185430000Y-77480000D03*
X185430000Y-80020000D03*
X185430000Y-82560000D03*
X193050000Y-82560000D03*
X193050000Y-80020000D03*
X193050000Y-77480000D03*
X193050000Y-74940000D03*
%TD*%
D12*
%TO.C,RV1*%
X194230000Y-49100000D03*
X189230000Y-49100000D03*
X184230000Y-49100000D03*
X194230000Y-56600000D03*
X189230000Y-56600000D03*
X184230000Y-56600000D03*
%TD*%
D13*
%TO.C,R9*%
X208320000Y-68580000D03*
D14*
X208320000Y-60960000D03*
%TD*%
%TO.C,R8*%
X208320000Y-76200000D03*
D13*
X208320000Y-83820000D03*
%TD*%
D14*
%TO.C,R7*%
X203240000Y-76200000D03*
D13*
X203240000Y-83820000D03*
%TD*%
D14*
%TO.C,R6*%
X173950000Y-59690000D03*
D13*
X173950000Y-67310000D03*
%TD*%
%TO.C,R5*%
X173950000Y-82550000D03*
D14*
X173950000Y-74930000D03*
%TD*%
D13*
%TO.C,R4*%
X168870000Y-82550000D03*
D14*
X168870000Y-74930000D03*
%TD*%
%TO.C,R3*%
X203240000Y-60960000D03*
D13*
X203240000Y-68580000D03*
%TD*%
D14*
%TO.C,R2*%
X168870000Y-67310000D03*
D13*
X168870000Y-59690000D03*
%TD*%
%TO.C,R1*%
X196850000Y-88900000D03*
D14*
X196850000Y-81280000D03*
%TD*%
D15*
%TO.C,J2*%
X210940000Y-52710000D03*
X208240000Y-51510000D03*
D16*
X205740000Y-44710000D03*
D17*
X201140000Y-48610000D03*
D16*
X201640000Y-55910000D03*
%TD*%
%TO.C,J1*%
X167292500Y-55910000D03*
D17*
X166792500Y-48610000D03*
D16*
X171392500Y-44710000D03*
D15*
X173892500Y-51510000D03*
X176592500Y-52710000D03*
%TD*%
D18*
%TO.C,D1*%
X204470000Y-91440000D03*
D19*
X204470000Y-88900000D03*
%TD*%
D14*
%TO.C,C4*%
X207010000Y-72390000D03*
X204510000Y-72390000D03*
%TD*%
%TO.C,C3*%
X170180000Y-71120000D03*
X172680000Y-71120000D03*
%TD*%
D10*
%TO.C,C2*%
X185480000Y-88900000D03*
D20*
X192980000Y-88900000D03*
%TD*%
D11*
%TO.C,C1*%
X177800000Y-87630000D03*
D20*
X180300000Y-87630000D03*
%TD*%
D21*
%TO.C,BAT*%
X168910000Y-92710000D03*
X168910000Y-87630000D03*
%TD*%
M02*
